# xmcd
#
# Track frame offsets:
# 150
# 15902
# 28343
# 40779
# 58189
# 73431
# 92138
# 109958
# 120326
# 135563
# 146555
#
# Disc length: 2110 seconds
#
#
# Revision: 2
# Processed by: cddbd v1.5.2PL0 Copyright (c) Steve Scherf et al.
# Submitted via: FreeRIP 2.96 
#
DISCID=9c083c0b
DTITLE=Various Artist - Blues from Up the Country
DYEAR=2003
DGENRE=Blues
TTITLE0=49 Highway Blues - Big Joe Williams
TTITLE1=Crying Won't Help You - Robert Nighthawk
TTITLE2=That's All Right - Arthur Crudup
TTITLE3=Beale Street Sugar - Sleepy John Estes
TTITLE4=Catfish Blues - Jimmy burns
TTITLE5=Lonesome bedroom Blues - Curtis Jones
TTITLE6=I'm gonna Get Up in the Morning - Yank Rachell
TTITLE7=Rub a Little Boogie - Champion Jack Dupree
TTITLE8=You Got to Help Me Some - J.D.Short
TTITLE9=That's All Right - Jimmy Rogers
TTITLE10=Hide Me in Thy Bosom - Blind Willie McTell
EXTD=YEAR: 2003
EXTT0=
EXTT1=
EXTT2=
EXTT3=
EXTT4=
EXTT5=
EXTT6=
EXTT7=
EXTT8=
EXTT9=
EXTT10=
PLAYORDER=
